<?xml version="1.0" encoding="UTF-8" standalone="no"?>
<svg width="15px" height="13px" viewBox="0 0 15 13" version="1.1" xmlns="http://www.w3.org/2000/svg" xmlns:xlink="http://www.w3.org/1999/xlink" xmlns:sketch="http://www.bohemiancoding.com/sketch/ns">
    <!-- Generator: Sketch 3.5.2 (25235) - http://www.bohemiancoding.com/sketch -->
    <title>Group</title>
    <desc>Created with Sketch.</desc>
    <defs></defs>
    <g id="Page-1" stroke="none" stroke-width="1" fill="none" fill-rule="evenodd" sketch:type="MSPage">
        <g id="Group" sketch:type="MSLayerGroup" transform="translate(0.000000, -1.000000)" fill="#33A7DE">
            <g id="icon-arrow-down" sketch:type="MSShapeGroup">
                <g id="Page-1">
                    <g id="icon-arrow-right" transform="translate(7.500000, 5.000000) rotate(90.000000) translate(-7.500000, -5.000000) translate(3.000000, -2.000000)">
                        <g id="Homepage">
                            <g id="Desktop-HD-Homepage">
                                <path d="M8.35522,6.859556 L1.97944,0.35763 L0.64237,1.721667 L5.68059,6.860037 L0.64863,11.991667 L1.9857,13.355222 L8.35522,6.859556 L8.35522,6.859556 L8.35522,6.859556 Z" id="Arrow"></path>
                            </g>
                        </g>
                    </g>
                </g>
            </g>
            <g id="icon-arrow-down-copy" transform="translate(7.500000, 10.000000) rotate(-180.000000) translate(-7.500000, -10.000000) translate(-0.000000, 5.000000)" sketch:type="MSShapeGroup">
                <g id="Page-1">
                    <g id="icon-arrow-right" transform="translate(7.500000, 5.000000) rotate(90.000000) translate(-7.500000, -5.000000) translate(3.000000, -2.000000)">
                        <g id="Homepage">
                            <g id="Desktop-HD-Homepage">
                                <path d="M8.35522,6.859556 L1.97944,0.35763 L0.64237,1.721667 L5.68059,6.860037 L0.64863,11.991667 L1.9857,13.355222 L8.35522,6.859556 L8.35522,6.859556 L8.35522,6.859556 Z" id="Arrow"></path>
                            </g>
                        </g>
                    </g>
                </g>
            </g>
        </g>
    </g>
</svg>