<?xml version="1.0" encoding="UTF-8" standalone="no"?>
<svg width="15px" height="16px" viewBox="0 0 15 16" version="1.1" xmlns="http://www.w3.org/2000/svg" xmlns:xlink="http://www.w3.org/1999/xlink">
    <!-- Generator: Sketch 3.8.3 (29802) - http://www.bohemiancoding.com/sketch -->
    <title>Groupcircle-arrow</title>
    <desc>Created with Sketch.</desc>
    <defs></defs>
    <g id="Page-1" stroke="none" stroke-width="1" fill="none" fill-rule="evenodd">
        <g id="Group">
            <path d="M7.42249721,15.2 C11.5218292,15.2 14.8449944,11.8325259 14.8449944,7.67853616 C14.8449944,3.52454639 11.5218292,0.157072321 7.42249721,0.157072321 C3.3231652,0.157072321 0,3.52454639 0,7.67853616 C0,11.8325259 3.3231652,15.2 7.42249721,15.2 Z" id="Oval-1-Copy" fill="#337AB7"></path>
            <g id="Forward-Copy" transform="translate(3.000000, 2.605714)" stroke="#FFFFFF" fill="#FFFFFF">
                <polygon id="Forward" points="8.61782172 5.31699693 8.57518149 5.35879126 8.53628182 5.39962403 4.1974557 9.79630117 3.74091834 9.33389465 7.62342224 5.39962403 0.0118127084 5.39962403 0.0118127084 4.74558369 7.62342224 4.74558369 3.74091834 0.811313073 4.1974557 0.348688544 8.53628182 4.74536568 8.57518149 4.79339249 8.61782172 4.82799278 8.76132333 4.97340774 8.83296645 5.07249476 8.76132333 5.17158197"></polygon>
            </g>
        </g>
    </g>
</svg>