<?xml version="1.0" standalone="no"?>
<!DOCTYPE svg PUBLIC "-//W3C//DTD SVG 20010904//EN"
 "http://www.w3.org/TR/2001/REC-SVG-20010904/DTD/svg10.dtd">
<svg version="1.0" xmlns="http://www.w3.org/2000/svg"
 width="512.000000pt" height="512.000000pt" viewBox="0 0 512.000000 512.000000"
 preserveAspectRatio="xMidYMid meet">
<metadata>
Created by potrace 1.11, written by Peter Selinger 2001-2013
</metadata>
<g transform="translate(0.000000,512.000000) scale(0.100000,-0.100000)"
fill="#000000" stroke="none">
<path d="M1979 4711 c-34 -34 -38 -78 -14 -157 8 -27 15 -50 15 -51 0 -2 -6
-3 -14 -3 -23 0 -76 -50 -76 -72 0 -15 -4 -18 -17 -13 -73 27 -99 29 -147 6
-77 -38 -94 -101 -55 -206 l21 -55 -30 -29 c-81 -75 -27 -195 101 -226 36 -9
42 -21 17 -35 -16 -8 -27 -6 -57 13 -88 54 -152 62 -210 26 -73 -45 -80 -115
-19 -198 l36 -48 -18 -53 -18 -54 -12 70 c-9 57 -17 74 -42 97 -35 31 -56 34
-88 11 -17 -12 -23 -12 -26 -2 -38 138 -52 158 -113 158 -25 0 -38 -8 -59 -35
l-26 -35 -34 30 c-45 39 -74 45 -117 25 -52 -25 -71 -71 -63 -156 6 -61 5 -68
-12 -73 -10 -4 -29 -18 -42 -31 -49 -52 -20 -131 66 -181 42 -25 44 -27 28
-45 -12 -14 -21 -16 -41 -8 -78 29 -153 -11 -153 -81 0 -17 -7 -20 -43 -20
-73 0 -117 -50 -117 -134 0 -54 36 -102 98 -130 37 -17 39 -20 29 -45 -8 -22
-6 -36 9 -67 27 -56 59 -64 139 -36 94 33 130 28 87 -11 -10 -10 -29 -17 -41
-17 -12 0 -36 -13 -52 -29 -28 -28 -29 -29 -51 -11 -69 53 -137 64 -182 29
-21 -16 -26 -29 -26 -63 l0 -42 -59 4 c-53 4 -61 2 -90 -24 -23 -21 -34 -41
-38 -70 -8 -59 18 -98 85 -131 41 -20 51 -30 46 -42 -20 -48 -16 -71 19 -106
30 -30 42 -35 81 -35 26 0 60 7 77 15 33 18 49 13 49 -14 0 -12 -13 -22 -39
-30 -45 -13 -81 -52 -81 -88 0 -37 26 -90 52 -104 12 -8 47 -16 76 -19 52 -5
54 -6 68 -45 33 -97 115 -109 228 -33 l48 31 19 -24 c25 -32 24 -36 -12 -77
-33 -37 -59 -90 -59 -118 0 -31 33 -86 59 -96 28 -11 104 8 173 43 l37 19 16
-30 c28 -54 79 -64 151 -30 34 17 94 83 94 104 0 2 7 20 16 41 l15 37 23 -21
c46 -43 107 10 153 134 15 41 33 75 40 75 21 0 109 -77 160 -141 28 -35 68
-95 88 -134 21 -38 80 -138 131 -221 52 -84 94 -163 94 -176 0 -37 -29 -126
-62 -192 -41 -81 -108 -142 -214 -196 -141 -70 -264 -139 -328 -181 -46 -31
-68 -39 -105 -39 -25 -1 -59 -7 -76 -14 -25 -11 -36 -10 -65 2 -21 10 -65 16
-110 16 -110 0 -179 -41 -215 -126 -17 -43 -20 -144 -4 -185 39 -103 202 -164
318 -117 29 11 44 13 59 5 39 -21 126 -24 184 -7 50 14 60 14 92 1 44 -19 116
-19 160 -1 28 12 41 11 94 -3 58 -14 67 -14 127 1 57 15 68 16 99 3 44 -19
117 -19 160 -1 28 12 41 11 94 -3 57 -14 67 -14 124 1 54 14 67 14 101 2 52
-18 121 -18 158 1 26 14 34 14 75 0 56 -19 101 -19 157 0 40 13 49 13 80 0 46
-19 117 -19 162 -1 29 13 40 13 81 0 61 -18 102 -18 160 2 44 15 52 15 105 -1
117 -36 236 -2 289 82 75 118 38 259 -84 322 -39 20 -64 25 -120 25 -39 0 -81
-6 -94 -13 -33 -18 -119 5 -140 37 -24 36 -89 76 -208 127 -248 106 -343 174
-398 287 -41 83 -59 208 -53 353 9 198 57 314 179 431 56 54 131 104 156 104
4 0 13 -25 19 -55 7 -30 19 -70 28 -89 17 -35 63 -63 89 -53 9 4 20 -9 32 -36
29 -66 63 -113 90 -126 34 -15 86 -14 109 3 16 12 24 9 62 -18 54 -38 108 -41
151 -9 23 17 38 21 65 16 49 -8 84 3 113 34 33 36 33 91 -1 127 -23 25 -24 29
-11 53 7 15 28 31 47 37 23 7 39 22 49 43 13 29 20 33 57 33 34 0 46 6 67 31
14 17 26 36 26 43 0 7 13 25 29 40 21 20 35 26 48 21 88 -36 147 -19 164 47
l12 43 63 0 c56 0 67 3 91 27 22 22 27 39 31 88 4 59 3 61 -31 94 -23 21 -55
39 -87 47 -45 12 -50 15 -50 41 0 45 -28 88 -67 104 -41 18 -77 12 -147 -23
-47 -24 -50 -24 -63 -7 -7 10 -13 31 -13 47 0 20 -10 38 -31 58 l-31 29 40 0
c51 0 88 29 96 76 6 31 10 35 29 30 37 -11 163 -19 191 -12 58 14 85 85 51
133 -14 20 -12 23 23 49 46 35 59 51 72 91 15 42 -2 102 -38 138 -25 26 -31
27 -94 22 l-68 -4 0 29 c0 20 -10 40 -31 60 -27 27 -29 34 -20 55 16 35 13
101 -6 133 -30 51 -81 62 -168 35 -27 -8 -51 -13 -52 -11 -2 2 -5 31 -8 65 -3
53 -1 63 16 72 30 16 59 70 59 109 0 84 -86 130 -187 101 -29 -9 -36 -6 -67
25 -53 53 -117 42 -198 -34 l-27 -25 -41 27 c-38 25 -42 25 -74 12 -18 -8 -48
-32 -66 -55 -30 -37 -34 -39 -46 -23 -11 14 -9 21 15 47 70 74 69 146 -4 207
-51 44 -134 34 -198 -22 -24 -22 -47 -36 -51 -33 -3 3 -6 28 -6 54 0 26 -5 51
-11 55 -7 4 0 18 19 38 40 42 52 68 52 110 0 41 -45 100 -84 110 -21 5 -24 12
-28 72 -5 86 -32 114 -109 114 -47 0 -54 -4 -101 -48 l-51 -49 -41 20 c-51 25
-63 32 -101 57 -72 48 -147 5 -180 -102 l-18 -57 -48 2 c-41 2 -53 -2 -76 -26
-23 -22 -28 -35 -26 -71 1 -24 10 -61 21 -82 36 -71 36 -80 1 -94 -17 -8 -39
-27 -49 -43 -24 -39 -30 -24 -18 48 5 33 8 90 5 128 -5 74 -24 107 -62 107
-19 0 -24 7 -30 47 -4 26 -13 60 -21 75 -24 46 -96 72 -134 48 -10 -6 -27 3
-62 36 -78 73 -139 84 -189 35z m160 -106 c37 -36 73 -65 79 -65 7 0 17 9 24
20 7 11 20 20 29 20 30 0 43 -31 49 -113 6 -91 23 -116 58 -84 10 9 22 17 25
17 8 0 9 -126 1 -156 -5 -19 -11 -21 -45 -17 -26 4 -47 0 -63 -11 -18 -11 -37
-14 -69 -10 l-44 6 -6 50 c-9 72 -35 120 -79 141 -44 21 -71 16 -104 -20 l-24
-26 -9 24 c-12 35 -4 46 38 53 62 10 68 26 43 105 -48 150 -14 173 97 66z
m1052 -6 c18 -18 20 -28 14 -80 l-7 -58 55 -24 c29 -14 57 -32 61 -42 8 -23
-13 -55 -64 -96 -45 -36 -54 -73 -20 -84 28 -9 25 -35 -4 -35 -34 0 -82 -49
-112 -114 -23 -50 -29 -56 -56 -56 -25 0 -29 3 -23 18 4 9 10 40 12 68 5 48 3
53 -25 74 l-30 22 24 46 c45 84 25 209 -36 230 -16 6 -31 8 -34 5 -3 -4 -6 10
-6 31 l0 37 29 -20 c42 -30 54 -27 101 27 38 43 74 71 93 72 4 0 16 -9 28 -21z
m-345 -10 c16 -17 19 -37 19 -108 l0 -86 30 1 c17 0 37 4 46 8 13 6 20 -1 29
-28 15 -46 2 -92 -45 -156 -42 -57 -41 -90 1 -90 45 0 64 -16 55 -48 -15 -52
-61 -131 -79 -136 -10 -4 -45 -22 -77 -41 -31 -19 -58 -35 -60 -35 -1 0 6 37
16 83 21 93 35 256 25 283 -13 33 -27 -2 -62 -160 -41 -184 -48 -206 -68 -206
-24 0 -27 15 -11 54 41 98 -1 207 -87 226 l-33 7 25 11 c14 6 37 13 53 16 38
9 36 45 -10 141 -45 96 -40 112 34 107 53 -4 74 10 88 58 4 14 16 46 27 73 23
53 51 62 84 26z m-1023 -230 c12 -6 45 -34 74 -61 63 -62 85 -60 125 7 15 25
32 45 38 45 21 0 43 -54 54 -138 l12 -87 29 2 c17 1 42 4 58 8 l27 7 0 -60 c0
-58 -1 -60 -31 -71 -18 -6 -38 -19 -45 -28 -18 -23 -17 -82 1 -113 19 -34 18
-39 -6 -33 -14 4 -31 28 -51 72 -46 103 -118 181 -154 167 -12 -5 -11 -12 5
-43 11 -21 34 -58 50 -83 17 -25 31 -48 31 -52 0 -5 -17 -8 -37 -8 -21 0 -43
-4 -49 -8 -18 -12 -34 -49 -34 -78 0 -25 -2 -26 -32 -20 -49 10 -52 19 -19 71
40 62 31 77 -59 106 -121 38 -153 94 -78 134 46 24 48 47 13 123 -32 69 -33
115 -3 136 26 19 51 20 81 5z m612 -264 c35 -36 66 -65 70 -65 5 0 23 11 40
25 31 23 34 23 48 7 25 -29 28 -58 12 -103 -36 -98 -38 -110 -19 -130 11 -12
31 -19 53 -19 20 0 42 -4 49 -8 21 -14 -4 -65 -39 -81 -27 -12 -47 -41 -63
-93 -4 -15 -9 -15 -47 6 -43 22 -43 23 -70 127 -14 57 -30 112 -34 122 -9 21
-24 22 -32 1 -6 -15 11 -180 22 -220 5 -15 0 -23 -19 -32 -22 -10 -26 -8 -31
9 -4 11 -17 25 -30 31 -29 13 -46 50 -39 85 4 22 -4 40 -40 87 -25 32 -46 69
-46 82 0 20 5 24 33 24 49 0 57 14 57 105 0 128 31 138 125 40z m1103 29 c27
-18 30 -65 5 -85 -25 -21 -73 -90 -73 -106 0 -7 11 -23 25 -35 49 -42 25 -83
-82 -138 -63 -32 -70 -44 -49 -87 17 -36 17 -36 -10 -64 -18 -19 -38 -29 -56
-29 -25 0 -28 4 -28 30 0 52 -25 99 -57 106 -15 3 -32 7 -37 8 -5 1 19 33 53
71 78 86 89 105 61 105 -29 0 -96 -47 -148 -104 -23 -25 -45 -46 -47 -46 -3 0
-5 11 -5 25 0 14 -11 53 -25 86 -13 34 -22 65 -19 70 3 5 25 9 49 9 l44 0 21
58 c24 64 64 122 85 122 7 0 19 -16 25 -35 6 -19 21 -40 31 -46 23 -12 39 -3
113 60 51 45 86 52 124 25z m455 -170 l34 -36 54 12 c69 15 98 11 117 -18 14
-22 13 -25 -38 -72 -51 -47 -52 -49 -41 -81 16 -46 15 -49 -22 -49 -39 0 -103
-42 -136 -89 l-22 -30 -45 24 c-29 15 -52 37 -64 59 l-18 35 74 46 c41 26 74
53 74 61 0 8 -4 14 -10 14 -17 0 -144 -50 -170 -67 -14 -9 -38 -16 -53 -15
-15 1 -56 -9 -90 -23 l-62 -25 -22 27 -22 27 30 35 c16 20 55 64 85 98 l56 61
35 -24 c20 -13 40 -24 45 -24 15 0 61 26 102 59 21 17 47 31 57 31 10 0 33
-16 52 -36z m-987 -129 c13 -33 23 -80 23 -104 1 -40 -1 -43 -21 -38 -13 3
-63 15 -113 27 -49 12 -103 25 -118 28 l-29 7 34 38 c39 45 143 106 177 104
20 -2 28 -13 47 -62z m-1314 -1 c40 -20 80 -46 90 -59 17 -22 50 -38 98 -49
24 -5 25 -8 22 -60 -3 -36 3 -74 14 -108 10 -29 17 -70 15 -90 -6 -74 57 -135
168 -164 53 -13 75 -14 119 -5 31 6 56 10 56 8 1 -1 11 -22 24 -46 20 -41 21
-46 6 -62 -20 -22 -76 -15 -116 14 -21 15 -37 19 -72 15 -45 -5 -46 -5 -71 38
-37 62 -64 78 -125 71 -28 -3 -50 -2 -50 3 0 17 -51 68 -85 84 -28 13 -35 23
-35 45 0 40 -26 58 -97 66 -82 9 -90 20 -69 93 l16 57 -40 58 c-46 67 -49 89
-18 111 34 24 72 19 150 -20z m336 -14 c15 -11 48 -24 73 -28 59 -11 109 -42
132 -81 l18 -30 -37 -16 c-20 -8 -40 -15 -44 -15 -4 0 -44 -23 -90 -50 -55
-33 -87 -47 -93 -41 -18 18 -21 118 -4 159 10 25 13 54 10 80 -6 48 -3 50 35
22z m-957 -35 c26 -25 55 -45 64 -45 8 0 29 19 46 43 17 23 36 42 42 42 7 0
18 -25 25 -55 28 -117 32 -128 51 -133 22 -5 51 9 69 35 7 10 17 18 22 18 13
0 30 -67 30 -115 0 -22 7 -51 16 -64 15 -20 22 -23 61 -17 30 4 54 1 73 -9 16
-8 45 -15 65 -15 23 0 38 -5 42 -15 9 -25 0 -27 -71 -17 -75 10 -192 -1 -254
-24 -42 -15 -43 -15 -75 11 -42 35 -92 98 -125 158 -32 56 -59 60 -54 8 5 -69
75 -170 168 -241 49 -39 54 -46 54 -82 0 -28 -7 -49 -25 -70 -14 -16 -25 -36
-25 -45 0 -35 -26 -2 -42 54 -22 76 -45 89 -115 68 -26 -8 -51 -15 -54 -15 -4
0 -18 18 -33 41 -31 46 -25 64 28 77 24 6 31 14 31 32 0 20 -13 32 -70 63 -79
43 -121 79 -110 96 3 7 25 23 47 37 l40 25 -7 79 c-7 78 2 120 27 120 6 0 33
-20 59 -45z m2434 -99 c11 -19 29 -40 42 -47 21 -11 32 -9 87 19 76 38 95 40
126 7 l23 -24 -47 -52 c-25 -28 -46 -55 -46 -60 0 -5 -19 -9 -42 -9 -24 -1
-68 -9 -98 -20 -30 -11 -64 -19 -76 -20 -11 0 -40 -13 -65 -29 l-45 -28 4 56
c4 46 11 63 39 95 31 34 34 43 31 87 -1 27 2 51 7 53 26 11 43 3 60 -28z
m-300 -78 c9 -64 17 -76 61 -84 19 -3 37 -10 40 -15 13 -21 -10 -71 -52 -111
-49 -47 -54 -66 -24 -93 31 -28 25 -40 -37 -81 -65 -41 -103 -73 -103 -85 0
-5 14 -15 30 -24 36 -19 38 -34 6 -72 -25 -29 -163 -116 -205 -128 -23 -7 -23
-6 -17 31 4 22 35 99 68 172 64 143 68 186 9 115 -36 -43 -115 -193 -126 -238
l-7 -30 -13 25 c-21 38 -39 125 -31 154 4 18 16 28 39 34 41 10 44 31 18 110
-27 78 -27 124 -1 147 17 15 24 16 45 7 38 -18 53 -5 66 56 6 32 18 69 25 85
13 25 18 27 54 21 34 -6 44 -2 77 25 55 46 70 42 78 -21z m944 7 c24 -41 29
-42 99 -15 75 29 110 27 123 -7 15 -40 -1 -66 -73 -118 -99 -73 -110 -98 -55
-130 35 -20 47 -33 47 -52 0 -23 -45 -36 -150 -42 -99 -6 -105 -7 -108 -29 -2
-12 6 -38 18 -57 26 -42 22 -58 -22 -81 -44 -23 -205 -32 -248 -14 -28 12 -30
16 -24 44 10 44 51 91 121 137 69 45 163 140 163 164 0 14 -3 14 -32 -1 -18
-9 -59 -34 -90 -55 -31 -22 -60 -39 -64 -39 -7 0 0 87 11 130 10 38 -22 73
-66 72 l-34 -1 32 29 c35 31 47 31 95 -2 43 -30 64 -23 126 42 71 73 99 78
131 25z m-1571 -95 c39 -41 74 -70 86 -70 11 0 33 12 49 28 l29 27 19 -24 c16
-19 18 -33 13 -71 -4 -31 -1 -66 10 -104 l17 -57 -30 -34 c-17 -19 -33 -50
-37 -70 -7 -39 10 -123 37 -176 10 -20 15 -39 12 -43 -15 -14 -33 -4 -39 22
-26 119 -62 172 -116 172 -19 0 -43 -7 -54 -15 -20 -13 -23 -11 -59 40 -20 30
-54 65 -74 77 -78 46 -110 92 -91 129 6 10 16 19 22 19 6 0 20 7 30 17 14 13
18 31 18 90 0 94 10 113 56 113 31 0 44 -9 102 -70z m1215 -83 c-3 -5 -7 -39
-8 -76 -4 -100 -48 -170 -98 -157 -71 17 -134 95 -151 184 -5 30 -3 34 27 47
35 16 240 17 230 2z m601 -23 c12 -4 16 -20 16 -54 0 -48 17 -80 43 -80 7 0
36 7 66 15 64 17 86 9 96 -34 9 -40 -6 -63 -64 -100 -27 -18 -52 -39 -55 -47
-3 -8 4 -35 16 -60 19 -39 20 -46 8 -54 -21 -13 -45 -12 -115 5 -87 21 -121
19 -139 -7 -9 -12 -16 -35 -16 -50 0 -41 -22 -47 -160 -41 -69 3 -143 6 -165
7 -58 3 -105 26 -105 52 0 19 7 21 92 28 118 8 190 38 215 91 14 28 15 42 6
64 l-10 28 60 7 c131 13 172 40 172 111 0 32 -6 50 -24 69 -20 21 -22 28 -11
41 13 15 46 20 74 9z m-2766 -51 c10 -4 12 -15 8 -37 -8 -40 -76 -153 -114
-189 -27 -26 -32 -27 -51 -15 -51 31 -89 126 -91 224 0 25 193 38 248 17z
m1696 -15 c-9 -30 -10 -31 -24 -23 -8 5 -6 13 6 26 22 25 27 24 18 -3z m-2352
-89 c73 -78 64 -75 159 -53 24 5 27 2 37 -37 10 -41 10 -44 -24 -81 -27 -30
-34 -46 -34 -79 0 -36 6 -48 45 -87 25 -25 44 -53 43 -61 -2 -9 -26 -23 -57
-33 -30 -10 -62 -24 -71 -33 -15 -14 -18 -13 -34 3 -15 17 -15 22 0 57 12 31
13 43 3 67 -22 53 -73 62 -159 28 -28 -11 -57 -20 -66 -20 -25 0 -28 30 -5 61
12 17 21 37 19 46 -2 9 -31 25 -68 39 -75 27 -104 56 -95 93 13 50 32 61 92
54 64 -7 73 0 73 65 0 42 0 42 37 42 34 0 45 -7 105 -71z m1000 -6 c9 -10 25
-38 37 -61 l22 -44 61 7 c33 4 59 3 56 -1 -38 -78 -40 -86 -26 -129 13 -39 13
-44 -9 -76 -47 -68 -20 -135 67 -164 47 -16 49 -17 39 -42 -5 -15 -7 -45 -3
-68 7 -51 -12 -93 -56 -125 -60 -43 -82 -1 -119 222 -11 65 -24 125 -29 134
-8 14 -10 14 -22 -1 -10 -11 -11 -42 -7 -123 3 -59 8 -115 12 -124 6 -14 2
-18 -15 -18 -31 0 -60 18 -60 37 0 9 -16 45 -35 80 -19 35 -35 68 -35 74 0 6
11 25 25 43 14 18 25 36 25 39 0 3 -18 27 -40 52 -48 56 -50 79 -10 100 29 15
30 18 30 84 0 54 4 74 21 95 24 30 49 33 71 9z m1353 -75 c12 -37 14 -53 5
-56 -6 -2 -33 -19 -60 -37 l-50 -34 0 38 c0 20 -5 42 -11 48 -8 8 -4 15 17 26
16 8 40 27 53 41 14 14 25 26 27 26 1 0 9 -23 19 -52z m-893 -38 c21 -23 47
-59 58 -81 27 -51 43 -57 90 -30 21 11 42 21 48 21 13 0 41 -70 53 -134 11
-57 20 -66 72 -66 32 0 38 -3 34 -17 -3 -10 -13 -51 -22 -91 l-17 -73 -67 63
c-69 66 -140 116 -204 143 -65 27 -45 -7 49 -86 99 -83 172 -184 149 -207 -4
-4 -30 -7 -60 -6 -71 0 -105 23 -105 69 0 19 -4 35 -9 35 -6 0 -46 -11 -90
-25 -92 -29 -115 -25 -126 26 -5 24 -2 38 14 60 24 32 27 62 9 77 -7 5 -37 15
-67 21 -86 18 -103 46 -56 91 29 27 31 44 9 95 -15 36 -14 40 4 64 25 33 48
38 89 16 27 -15 35 -16 48 -5 8 7 15 22 15 34 0 23 17 46 34 46 5 0 26 -18 48
-40z m-1035 -41 c26 -28 53 -63 59 -78 27 -65 110 -93 219 -74 33 6 67 14 76
18 12 4 24 -3 39 -25 22 -31 22 -34 6 -60 -9 -16 -16 -37 -16 -48 0 -27 -29
-37 -46 -15 -7 10 -14 21 -14 25 0 12 -67 48 -91 48 -12 0 -33 -10 -46 -22
-22 -20 -24 -21 -60 -5 -23 11 -65 17 -108 18 -125 0 -145 3 -145 16 0 6 -20
29 -45 50 -33 28 -45 44 -45 65 0 30 19 43 99 68 33 11 46 21 53 42 6 15 12
28 14 28 2 0 25 -23 51 -51z m2066 -66 c65 34 80 34 102 1 16 -25 20 -26 98
-23 l82 4 0 -30 c0 -22 -8 -35 -33 -51 -18 -13 -38 -24 -45 -27 -8 -2 -12 -26
-12 -63 l0 -59 -92 -3 c-51 -1 -93 -7 -93 -11 0 -5 7 -25 15 -44 10 -25 12
-38 4 -43 -6 -3 -58 -3 -115 1 l-104 7 -7 -32 c-6 -32 -6 -32 -58 -27 -28 3
-69 12 -90 21 l-38 16 34 36 c38 40 77 62 171 98 98 36 170 75 162 88 -14 23
-186 -17 -341 -80 -37 -15 -53 -18 -53 -9 1 18 36 94 60 128 20 27 22 28 45
13 23 -15 26 -14 68 14 24 17 50 38 58 48 8 9 27 25 44 35 29 18 30 18 58 -9
l28 -27 52 28z m-483 -220 c-12 -40 -25 -62 -41 -70 -32 -16 -39 -9 -39 43 0
43 2 46 43 64 23 11 45 20 48 20 4 0 -1 -26 -11 -57z m1088 10 c16 -10 45 -29
65 -42 l37 -23 -24 -19 c-13 -10 -31 -36 -39 -57 -25 -61 -63 -99 -123 -121
-30 -12 -57 -21 -60 -21 -3 0 -18 28 -34 63 -24 49 -30 76 -30 129 0 37 5 79
10 94 11 27 11 27 90 21 53 -3 89 -11 108 -24z m-2726 -46 c-2 -25 3 -48 17
-70 l20 -33 -56 -95 c-31 -51 -58 -96 -59 -98 -2 -2 -21 8 -43 23 -42 29 -66
72 -96 168 -21 65 -12 88 34 88 15 0 37 7 49 16 46 32 78 44 107 42 28 -3 30
-5 27 -41z m186 6 c48 -28 74 -24 90 13 10 20 16 23 30 15 30 -16 50 -44 61
-88 10 -36 16 -43 36 -43 19 0 28 9 39 35 8 19 20 35 26 35 17 0 50 -83 58
-147 8 -67 28 -79 68 -42 l24 22 16 -38 c8 -21 18 -69 21 -108 l6 -69 -24 7
c-35 10 -103 50 -204 121 -95 66 -145 87 -145 62 0 -25 60 -87 140 -143 43
-31 95 -75 115 -98 l36 -42 -33 -14 c-48 -20 -164 -27 -183 -11 -10 8 -12 17
-6 24 6 6 14 24 20 38 15 40 -8 58 -72 59 -62 0 -116 17 -131 41 -8 13 -5 22
12 41 29 31 28 61 -3 75 -14 7 -32 12 -40 12 -24 0 -65 23 -65 36 0 7 14 22
30 34 39 28 38 47 -5 97 -38 45 -44 73 -19 98 19 18 40 14 102 -22z m-756 -28
c85 -68 114 -70 132 -6 13 45 41 40 96 -17 41 -42 90 -136 77 -148 -2 -3 -26
0 -52 7 -29 7 -86 10 -153 6 -106 -5 -142 -12 -142 -27 0 -13 25 -19 107 -25
154 -12 164 -14 153 -35 -5 -10 -10 -37 -10 -59 0 -23 -2 -41 -4 -41 -3 0 -20
9 -39 20 -53 31 -151 27 -210 -8 -52 -32 -72 -34 -97 -14 l-23 19 21 31 c41
57 34 68 -86 112 -39 15 -56 43 -47 77 6 25 7 25 86 21 94 -6 104 1 97 67 -3
24 -3 47 0 50 15 14 55 2 94 -30z m2096 -110 c8 -3 44 8 78 24 35 17 64 28 64
26 0 -2 -18 -36 -39 -77 -54 -100 -70 -163 -81 -303 -5 -66 -12 -143 -16 -171
-5 -41 -3 -52 10 -57 25 -10 38 0 84 61 23 31 64 82 91 112 l49 55 -11 -42
c-16 -61 -4 -69 72 -53 67 14 102 9 58 -9 -94 -37 -230 -165 -285 -269 -58
-109 -76 -198 -76 -372 0 -177 15 -257 67 -353 61 -116 166 -196 361 -277 115
-48 212 -96 220 -108 3 -5 -12 -14 -34 -21 -33 -10 -49 -9 -95 4 -35 11 -70
14 -94 10 -35 -6 -40 -4 -46 17 -17 56 -56 88 -170 143 -153 73 -202 125 -241
254 -13 43 -18 81 -44 336 -12 114 -19 145 -30 145 -20 0 -33 -213 -20 -330
27 -261 93 -364 294 -461 90 -43 146 -84 146 -108 0 -4 -32 -5 -71 -3 -38 3
-89 -1 -113 -8 -36 -10 -51 -9 -90 4 -26 9 -62 16 -81 16 -27 0 -35 4 -35 18
0 28 -37 80 -69 97 -82 42 -167 2 -220 -103 -17 -33 -26 -42 -39 -37 -9 4 -32
9 -49 12 -18 3 -37 11 -42 17 -16 19 7 104 48 180 22 39 49 99 60 133 24 70
28 137 9 131 -14 -5 -178 -321 -178 -343 0 -9 -24 -14 -83 -17 -67 -3 -92 -10
-135 -33 -29 -16 -61 -42 -70 -57 -13 -22 -22 -27 -37 -23 -84 26 -118 28
-190 9 -34 -9 84 59 242 140 133 68 161 87 212 142 64 68 111 155 136 249 27
107 27 107 -85 285 -38 61 -88 145 -112 188 -89 165 -199 293 -289 339 -27 14
-38 24 -29 26 108 33 127 50 114 101 -5 23 -3 26 20 26 14 0 36 10 47 21 19
19 21 30 17 89 -5 71 3 82 31 38 29 -47 43 -109 50 -231 8 -122 10 -132 49
-210 61 -124 219 -287 278 -287 36 0 54 50 54 147 0 90 -23 257 -43 323 -42
137 -123 233 -227 271 l-60 22 36 40 c35 38 39 40 103 42 36 0 73 4 82 9 14 6
17 -4 22 -71 8 -112 30 -169 132 -338 68 -113 95 -150 110 -150 50 0 111 234
101 390 -3 50 -12 111 -20 138 l-15 47 24 0 c25 0 25 -1 52 105 l7 30 9 -42
c5 -23 16 -44 25 -48z m752 52 c0 -7 -16 -28 -35 -47 -38 -37 -43 -63 -19 -98
26 -38 11 -69 -39 -82 -127 -34 -132 -36 -135 -58 -2 -12 4 -32 12 -44 9 -12
16 -25 16 -29 0 -9 -117 -36 -187 -44 -29 -3 -53 -2 -53 2 0 4 15 35 33 68 25
46 43 65 82 88 60 35 96 67 89 78 -18 30 -178 -35 -261 -106 l-43 -37 0 34 c0
29 7 39 45 66 25 18 50 42 56 55 8 18 17 22 40 19 46 -7 77 6 94 37 14 27 17
29 47 20 43 -12 100 -11 135 2 38 14 73 48 73 71 0 13 7 18 25 18 14 0 25 -6
25 -13z m584 -52 c8 -19 22 -38 30 -41 8 -3 48 13 88 35 111 61 146 52 134
-33 -8 -51 -1 -58 69 -71 87 -15 126 -54 103 -103 -12 -25 -18 -27 -93 -32
l-80 -5 -10 -49 c-6 -27 -16 -51 -22 -53 -7 -3 -33 5 -59 16 -65 29 -102 28
-110 -4 -7 -29 -7 -29 -43 -10 -26 13 -28 18 -24 58 5 39 2 47 -28 76 l-33 33
-82 -6 c-68 -6 -82 -4 -87 8 -12 31 49 36 246 22 89 -7 117 -6 117 3 0 17 -53
37 -138 51 -72 12 -73 12 -57 33 9 12 25 41 36 65 11 23 22 42 24 42 3 0 11
-16 19 -35z m-1120 -50 c44 -18 45 -26 7 -48 -16 -9 -41 -31 -56 -49 -23 -27
-26 -39 -23 -82 3 -28 7 -58 11 -66 5 -10 -7 -31 -33 -60 l-40 -45 6 65 c10
112 22 166 53 234 16 36 32 66 34 66 3 0 21 -7 41 -15z m-450 -85 l74 0 6 -31
c12 -61 5 -185 -13 -257 -11 -41 -21 -75 -23 -77 -2 -2 -31 42 -65 98 -63 106
-103 204 -103 256 0 29 2 30 26 21 14 -6 58 -10 98 -10z m-1451 -62 c39 -28
46 -38 46 -69 1 -37 38 -90 71 -101 13 -4 13 -8 1 -31 -7 -14 -11 -33 -8 -41
5 -12 0 -16 -16 -16 -30 0 -82 -33 -103 -65 -12 -19 -20 -23 -30 -14 -15 12
-32 5 -108 -48 -50 -34 -87 -42 -103 -20 -5 6 -15 31 -21 53 -13 46 -28 54
-97 54 -47 0 -85 23 -85 50 0 14 17 27 55 45 58 28 62 36 56 118 -3 36 21 36
79 -3 47 -31 88 -38 108 -18 7 7 12 38 12 70 0 44 4 60 18 68 27 17 76 5 125
-32z m2496 -44 c51 -16 141 -18 190 -4 25 7 38 6 56 -6 16 -10 45 -14 106 -12
l84 3 -3 -57 -2 -58 40 -20 c30 -16 40 -26 40 -45 0 -14 -6 -26 -12 -26 -24
-3 -53 -6 -80 -7 -21 -2 -29 -9 -38 -36 -16 -49 -23 -50 -125 -25 -40 10 -40
11 -37 52 5 58 -17 75 -115 92 -43 8 -79 14 -80 15 -1 0 -4 14 -8 30 -10 46
-52 63 -141 58 -63 -4 -73 -3 -77 13 -4 14 4 18 37 24 22 3 52 12 66 20 14 8
32 12 40 8 8 -3 35 -12 59 -19z m-1421 -8 c127 -65 187 -204 199 -466 l5 -125
-57 55 c-140 134 -182 222 -195 405 -4 66 -11 128 -15 138 -10 23 6 22 63 -7z
m-633 -125 c-5 -22 0 -35 18 -56 l24 -28 -67 -33 c-66 -33 -200 -137 -208
-161 -7 -24 27 -13 150 51 113 59 225 102 236 92 7 -8 -39 -135 -57 -157 l-18
-22 -21 21 c-43 43 -74 22 -122 -83 -29 -63 -46 -88 -69 -99 -45 -24 -57 -20
-78 22 -10 20 -27 39 -37 41 -10 1 -61 -14 -113 -35 -79 -32 -96 -36 -103 -24
-18 28 -10 50 40 105 53 58 59 79 35 111 -21 28 -18 57 8 82 17 16 37 22 87
24 59 3 65 5 68 26 2 13 -4 32 -13 42 -41 46 27 53 117 13 55 -24 60 -25 76
-10 14 14 14 22 4 50 -18 49 -15 57 19 57 29 0 30 -2 24 -29z m1999 -10 c-8
-38 20 -57 101 -66 105 -12 103 -10 101 -68 -1 -51 -1 -51 39 -65 91 -32 88
-30 71 -54 -23 -32 -20 -51 14 -83 19 -18 30 -38 28 -50 -3 -18 -9 -20 -69
-17 -59 2 -68 0 -89 -23 -33 -35 -51 -32 -111 20 -29 25 -57 45 -61 45 -5 0
-22 -14 -37 -31 -25 -27 -32 -29 -50 -20 -11 6 -39 49 -61 96 -40 84 -69 110
-93 86 -18 -18 -25 -13 -41 37 -23 70 -31 132 -17 132 19 0 125 -57 187 -100
31 -22 66 -40 76 -40 22 0 22 3 4 38 -20 39 -72 85 -140 126 -48 28 -56 37
-42 42 38 14 83 22 138 23 l58 1 -6 -29z m-921 -1388 c8 -10 19 -31 23 -47 6
-27 5 -29 -17 -22 -13 4 -50 10 -81 13 -32 3 -58 9 -58 13 0 4 12 19 26 34 32
31 83 35 107 9z m-403 -37 c0 -27 -51 -38 -110 -22 -52 13 -54 15 -30 24 39
17 140 15 140 -2z m-808 -109 c32 -19 64 -56 125 -146 82 -120 83 -121 57
-127 -34 -9 -107 2 -143 20 -25 14 -32 13 -65 -4 -40 -22 -118 -26 -163 -9
-127 48 -132 229 -8 286 46 21 145 11 197 -20z m720 7 c27 -14 33 -14 72 5 72
36 145 22 197 -35 47 -52 170 -235 164 -245 -10 -15 -88 -10 -130 10 -39 18
-42 18 -75 0 -45 -25 -111 -24 -160 1 -29 15 -59 49 -124 144 -47 69 -86 127
-86 130 0 20 97 13 142 -10z m960 0 c27 -14 33 -14 72 5 49 24 94 27 139 7 42
-18 70 -49 157 -175 76 -111 77 -121 12 -121 -18 0 -49 7 -69 15 -44 19 -72
19 -97 0 -25 -19 -97 -19 -139 -1 -42 18 -61 40 -152 171 -71 105 -74 110 -52
117 30 9 93 1 129 -18z"/>
</g>
</svg>
